<svg width="60" height="60" viewBox="0 0 60 60" fill="none" xmlns="http://www.w3.org/2000/svg">
<rect width="60" height="60" rx="10" fill="white"/>
<path d="M28.5117 38.9481V43.8854C28.5117 45.1132 29.507 46.1085 30.7348 46.1085H40.789L45.6899 49.2306C46.4618 49.7224 47.4723 49.1679 47.4723 48.2528V31.5596C47.4723 30.3317 46.477 29.3364 45.2492 29.3364H36.9632" stroke="#603F26" stroke-miterlimit="10" stroke-linecap="round" stroke-linejoin="round"/>
<path d="M12.5273 36.9963V41.157C12.5273 42.0721 13.5379 42.6266 14.3098 42.1349L19.312 38.9482H29.2649C30.4927 38.9482 31.488 37.9529 31.488 36.7251V36.3031M24.0079 22.176H14.7505C13.5227 22.176 12.5273 23.1713 12.5273 24.3991V34.2618M26.7883 32.3684V33.295C26.7883 34.9563 28.135 36.3031 29.7963 36.3031H31.8903C33.5516 36.3031 34.8984 34.9563 34.8984 33.295V32.3684M34.923 32.3684H26.7637C25.5473 32.3684 24.5614 31.3824 24.5614 30.1661C24.5614 28.9499 25.5474 27.9638 26.7637 27.9638H34.923C36.1394 27.9638 37.1253 28.9499 37.1253 30.1661C37.1253 31.3824 36.1394 32.3684 34.923 32.3684Z" stroke="#603F26" stroke-miterlimit="10" stroke-linecap="round" stroke-linejoin="round"/>
<path d="M36.7261 13.2594C35.2719 11.5951 33.123 10.5534 30.7317 10.5867C26.4646 10.6462 23.0083 14.175 23.0333 18.4424C23.0474 20.8492 24.1503 22.9978 25.8743 24.4209C26.2199 24.706 26.4983 25.0639 26.6894 25.4691C26.8806 25.8743 26.9798 26.3167 26.98 26.7648V27.9636M34.7061 27.9637V26.7649C34.7061 25.8544 35.1173 24.9956 35.8187 24.4152C37.5498 22.9828 38.6528 20.8181 38.6528 18.3958C38.6528 17.4119 38.4704 16.4709 38.1383 15.6039" stroke="#603F26" stroke-miterlimit="10" stroke-linecap="round" stroke-linejoin="round"/>
<path d="M31.3577 27.9636L32.6648 19.2537C32.784 18.4598 32.1691 17.7458 31.3664 17.7458H30.3195C29.5168 17.7458 28.902 18.4598 29.0211 19.2537L30.3283 27.9636M16.9629 28.3687H25.4902M16.9629 32.7552H26.7879M33.9041 35.5291H43.036M32.9473 39.9156H43.036" stroke="#603F26" stroke-miterlimit="10" stroke-linecap="round" stroke-linejoin="round"/>
</svg>
