<svg width="60" height="60" viewBox="0 0 60 60" fill="none" xmlns="http://www.w3.org/2000/svg">
<rect width="60" height="60" rx="10" fill="white"/>
<g clip-path="url(#clip0_977_2022)">
<path d="M46.6667 10H26.6667C25.7829 10.0011 24.9357 10.3526 24.3108 10.9775C23.6859 11.6024 23.3344 12.4496 23.3333 13.3333V21.2273C22.4929 20.8575 21.5848 20.6666 20.6667 20.6667H16.6667C14.8992 20.6686 13.2046 21.3716 11.9548 22.6214C10.7049 23.8713 10.0019 25.5658 10 27.3333V32C10.0082 32.5932 10.2107 33.1673 10.5766 33.6343C10.9424 34.1013 11.4514 34.4354 12.0253 34.5853C12.1329 35.7767 12.5585 36.9173 13.2577 37.8878C13.9569 38.8584 14.904 39.6233 16 40.1027V42.046C14.7123 42.2094 13.5283 42.8363 12.6694 43.8094C11.8105 44.7826 11.3355 46.0353 11.3333 47.3333V48C11.3333 48.5304 11.544 49.0391 11.9191 49.4142C12.2942 49.7893 12.8029 50 13.3333 50H24C24.5304 50 25.0391 49.7893 25.4142 49.4142C25.7893 49.0391 26 48.5304 26 48V47.3333C25.9978 46.0353 25.5229 44.7826 24.664 43.8094C23.805 42.8363 22.621 42.2094 21.3333 42.046V40.1027C22.3893 39.6394 23.3078 38.9115 24 37.9893C24.3078 38.4069 24.7096 38.7462 25.1729 38.9796C25.6362 39.2131 26.1479 39.3343 26.6667 39.3333H46.6667C47.5504 39.3323 48.3976 38.9807 49.0225 38.3559C49.6474 37.731 49.9989 36.8837 50 36V13.3333C49.9989 12.4496 49.6474 11.6024 49.0225 10.9775C48.3976 10.3526 47.5504 10.0011 46.6667 10ZM11.3333 27.3333C11.3349 25.9193 11.8973 24.5637 12.8972 23.5639C13.897 22.564 15.2527 22.0016 16.6667 22H20.6667C22.0807 22.0016 23.4363 22.564 24.4361 23.5639C25.436 24.5637 25.9984 25.9193 26 27.3333V28.5187C25.6533 29.214 23.686 32.6667 18.6667 32.6667C13.6473 32.6667 11.6807 29.2147 11.3333 28.518V27.3333ZM24.6667 47.3333V48C24.6667 48.1768 24.5964 48.3464 24.4714 48.4714C24.3464 48.5964 24.1768 48.6667 24 48.6667H13.3333C13.1565 48.6667 12.987 48.5964 12.8619 48.4714C12.7369 48.3464 12.6667 48.1768 12.6667 48V47.3333C12.6677 46.2728 13.0895 45.256 13.8394 44.5061C14.5893 43.7562 15.6061 43.3344 16.6667 43.3333H20.6667C21.7272 43.3344 22.744 43.7562 23.4939 44.5061C24.2438 45.256 24.6656 46.2728 24.6667 47.3333ZM20 42H17.3333V40.5333C18.2129 40.7156 19.1205 40.7156 20 40.5333V42ZM18.6667 39.3333C17.2526 39.3319 15.8969 38.7696 14.897 37.7697C13.8971 36.7698 13.3347 35.4141 13.3333 34C13.3333 33.8232 13.2631 33.6536 13.1381 33.5286C13.013 33.4036 12.8435 33.3333 12.6667 33.3333C12.3145 33.3287 11.9781 33.1867 11.729 32.9377C11.48 32.6886 11.338 32.3522 11.3333 32V30.8453C12.2479 31.8788 13.3795 32.6974 14.6472 33.2428C15.9149 33.7881 17.2874 34.0467 18.6667 34C20.0459 34.0465 21.4183 33.7879 22.686 33.2425C23.9537 32.6972 25.0853 31.8786 26 30.8453V32C26 32.3536 25.8595 32.6928 25.6095 32.9428C25.3594 33.1929 25.0203 33.3333 24.6667 33.3333C24.4899 33.3333 24.3203 33.4036 24.1953 33.5286C24.0702 33.6536 24 33.8232 24 34C23.9984 35.414 23.436 36.7696 22.4361 37.7695C21.4363 38.7693 20.0807 39.3317 18.6667 39.3333ZM34.108 34.71C34.2606 35.2718 34.5938 35.7677 35.0562 36.1213C35.5186 36.4749 36.0845 36.6665 36.6667 36.6665C37.2488 36.6665 37.8147 36.4749 38.2772 36.1213C38.7396 35.7677 39.0728 35.2718 39.2253 34.71C40.0646 34.8299 40.8442 35.213 41.4519 35.8042C42.0596 36.3955 42.4639 37.1643 42.6067 38H30.7267C30.8695 37.1643 31.2738 36.3955 31.8814 35.8042C32.4891 35.213 33.2687 34.8299 34.108 34.71ZM44 20.7893C43.6959 20.6762 43.3685 20.6405 43.0471 20.6854C42.7258 20.7303 42.4207 20.8545 42.1593 21.0467C42.1011 20.9628 42.0386 20.882 41.972 20.8047C41.5238 20.287 40.9047 19.9474 40.2273 19.8473C39.1007 19.7186 38.0136 19.3553 37.036 18.7807C36.9266 18.7079 36.7981 18.669 36.6667 18.669C36.5352 18.669 36.4067 18.7079 36.2973 18.7807C35.3205 19.3549 34.2344 19.7182 33.1087 19.8473C32.4303 19.9467 31.8102 20.2864 31.3613 20.8047C31.2945 20.8824 31.2317 20.9637 31.1733 21.048C30.9123 20.8553 30.6074 20.7308 30.2861 20.6856C29.9648 20.6404 29.6374 20.6761 29.3333 20.7893V19.3333C29.3349 17.9193 29.8973 16.5637 30.8972 15.5639C31.897 14.564 33.2527 14.0016 34.6667 14H38.6667C40.0807 14.0016 41.4363 14.564 42.4361 15.5639C43.436 16.5637 43.9984 17.9193 44 19.3333V20.7893ZM29.3333 22.6667C29.3333 22.4899 29.4036 22.3203 29.5286 22.1953C29.6536 22.0702 29.8232 22 30 22C30.089 21.9998 30.1771 22.0179 30.2589 22.0531C30.3406 22.0883 30.4143 22.1399 30.4753 22.2047C30.5366 22.2649 30.5852 22.3368 30.618 22.4162C30.6509 22.4956 30.6675 22.5808 30.6667 22.6667C30.6667 22.8435 30.7369 23.013 30.8619 23.1381C30.987 23.2631 31.1565 23.3333 31.3333 23.3333C31.5101 23.3333 31.6797 23.2631 31.8047 23.1381C31.9298 23.013 32 22.8435 32 22.6667C31.999 22.3021 32.1313 21.9498 32.372 21.676C32.6117 21.3992 32.943 21.218 33.3053 21.1653C34.4793 21.0173 35.6176 20.6613 36.6667 20.114C37.7162 20.6615 38.8549 21.0177 40.0293 21.166C40.3917 21.2182 40.723 21.3992 40.9627 21.676C41.2029 21.95 41.3347 22.3023 41.3333 22.6667C41.3333 22.8435 41.4036 23.013 41.5286 23.1381C41.6536 23.2631 41.8232 23.3333 42 23.3333C42.1768 23.3333 42.3464 23.2631 42.4714 23.1381C42.5964 23.013 42.6667 22.8435 42.6667 22.6667C42.6665 22.5777 42.6846 22.4896 42.7198 22.4078C42.755 22.326 42.8065 22.2524 42.8713 22.1913C42.9315 22.13 43.0035 22.0815 43.0829 22.0486C43.1622 22.0158 43.2474 21.9992 43.3333 22C43.5101 22 43.6797 22.0702 43.8047 22.1953C43.9298 22.3203 44 22.4899 44 22.6667V24C44 24.3536 43.8595 24.6928 43.6095 24.9428C43.3594 25.1929 43.0203 25.3333 42.6667 25.3333C42.4899 25.3333 42.3203 25.4036 42.1953 25.5286C42.0702 25.6536 42 25.8232 42 26C42 27.4145 41.4381 28.771 40.4379 29.7712C39.4377 30.7714 38.0812 31.3333 36.6667 31.3333C35.2522 31.3333 33.8956 30.7714 32.8954 29.7712C31.8952 28.771 31.3333 27.4145 31.3333 26C31.3333 25.8232 31.2631 25.6536 31.1381 25.5286C31.013 25.4036 30.8435 25.3333 30.6667 25.3333C30.313 25.3333 29.9739 25.1929 29.7239 24.9428C29.4738 24.6928 29.3333 24.3536 29.3333 24V22.6667ZM36.6667 32.6667C37.1145 32.6672 37.5612 32.6225 38 32.5333V34C38 34.3536 37.8595 34.6928 37.6095 34.9428C37.3594 35.1929 37.0203 35.3333 36.6667 35.3333C36.313 35.3333 35.9739 35.1929 35.7239 34.9428C35.4738 34.6928 35.3333 34.3536 35.3333 34V32.5333C35.7722 32.6225 36.2189 32.6672 36.6667 32.6667ZM48.6667 36C48.6667 36.5304 48.456 37.0391 48.0809 37.4142C47.7058 37.7893 47.1971 38 46.6667 38H43.954C43.8044 36.8268 43.2695 35.7364 42.4332 34.9001C41.5969 34.0638 40.5066 33.5289 39.3333 33.3793V32.1027C40.4288 31.6237 41.3756 30.8593 42.0747 29.8893C42.7737 28.9194 43.1995 27.7794 43.3073 26.5887C43.8853 26.4448 44.3986 26.1119 44.7657 25.6429C45.1327 25.1738 45.3325 24.5956 45.3333 24V19.3333C45.3314 17.5658 44.6284 15.8713 43.3786 14.6214C42.1287 13.3716 40.4342 12.6686 38.6667 12.6667H34.6667C32.8992 12.6686 31.2046 13.3716 29.9548 14.6214C28.7049 15.8713 28.0019 17.5658 28 19.3333V24C28.0011 24.5956 28.201 25.1738 28.568 25.6428C28.9351 26.1119 29.4482 26.445 30.026 26.5893C30.1341 27.7799 30.56 28.9197 31.259 29.8895C31.9581 30.8593 32.9047 31.6236 34 32.1027V33.3793C32.8268 33.5289 31.7364 34.0638 30.9001 34.9001C30.0638 35.7364 29.5289 36.8268 29.3793 38H26.6667C26.2498 37.9967 25.8444 37.8636 25.5066 37.6193C25.1689 37.3749 24.9156 37.0315 24.782 36.6367C25.0662 35.9867 25.2436 35.2952 25.3073 34.5887C25.8853 34.4448 26.3986 34.1119 26.7657 33.6429C27.1327 33.1738 27.3325 32.5956 27.3333 32V27.3333C27.3322 26.3004 27.0907 25.2818 26.6279 24.3583C26.165 23.4348 25.4936 22.6318 24.6667 22.0127V13.3333C24.6667 12.8029 24.8774 12.2942 25.2525 11.9191C25.6275 11.544 26.1362 11.3333 26.6667 11.3333H46.6667C47.1971 11.3333 47.7058 11.544 48.0809 11.9191C48.456 12.2942 48.6667 12.8029 48.6667 13.3333V36Z" fill="#525B44"/>
</g>
<defs>
<clipPath id="clip0_977_2022">
<rect width="40" height="40" fill="white" transform="translate(10 10)"/>
</clipPath>
</defs>
</svg>
