<svg width="60" height="60" viewBox="0 0 60 60" fill="none" xmlns="http://www.w3.org/2000/svg">
<rect width="60" height="60" rx="10" fill="white"/>
<g clip-path="url(#clip0_977_2031)">
<path fill-rule="evenodd" clip-rule="evenodd" d="M41.7044 41.0721C39.7595 41.0721 38.166 39.5021 38.166 37.5103C38.166 35.5419 39.7595 33.9485 41.7044 33.9485C43.6493 33.9485 45.2896 35.5419 45.2896 37.5103C45.2896 39.5021 43.6962 41.0721 41.7044 41.0721ZM41.7044 35.1201C40.3921 35.1201 39.3142 36.1746 39.3142 37.5337C39.3142 38.9163 40.3921 39.9707 41.7044 39.9707C43.0401 39.9707 44.1414 38.9163 44.1414 37.5337C44.1414 36.1746 43.0401 35.1201 41.7044 35.1201Z" fill="black"/>
<path fill-rule="evenodd" clip-rule="evenodd" d="M43.1106 45.7588H40.3221C39.994 45.7588 39.7362 45.501 39.7362 45.173V43.8139C39.3379 43.6733 38.9864 43.5092 38.6349 43.3452L37.6976 44.306C37.4633 44.5169 37.1118 44.5169 36.8774 44.306L34.8856 42.361C34.7919 42.2439 34.7216 42.0798 34.7216 41.9627C34.7216 41.8221 34.7919 41.658 34.8856 41.5643L35.8464 40.627C35.6355 40.2755 35.5183 39.8771 35.3777 39.5257H34.0186C33.6906 39.5257 33.4328 39.2679 33.4328 38.9398V36.1513C33.4328 35.8232 33.6906 35.5655 34.0186 35.5655H35.4246C35.5183 35.214 35.6824 34.8156 35.8698 34.4641L34.8856 33.48C34.7919 33.3862 34.7216 33.2222 34.7216 33.105C34.7216 32.9644 34.7919 32.8004 34.8856 32.7067L36.8774 30.7617C37.1118 30.5274 37.4633 30.5274 37.6976 30.7617L38.6583 31.6756C39.0098 31.4647 39.3848 31.3007 39.7597 31.207V29.8713C39.7597 29.5667 40.0174 29.3089 40.3455 29.3089H43.134C43.4621 29.3089 43.7198 29.5667 43.7198 29.8713V31.2538C44.1182 31.371 44.4697 31.535 44.8212 31.6991L45.7819 30.7617C45.9928 30.5274 46.3443 30.5274 46.5787 30.7617L48.5236 32.7067C48.6173 32.8004 48.6876 32.9644 48.6876 33.105C48.6876 33.2222 48.6173 33.3862 48.5236 33.48L47.5863 34.4173C47.7737 34.7922 47.9378 35.1671 48.0784 35.5421H49.414C49.7421 35.5421 49.9999 35.7998 49.9999 36.1279V38.9164C49.9999 39.2445 49.7421 39.5022 49.414 39.5022H48.0784C47.9378 39.8771 47.7737 40.2755 47.6331 40.6036L48.5705 41.5409C48.6642 41.6346 48.7345 41.7986 48.7345 41.9392C48.7345 42.0564 48.6642 42.2204 48.5705 42.3142L46.6255 44.2591C46.3912 44.4934 46.0397 44.4934 45.8054 44.2591L44.8681 43.3218C44.54 43.5092 44.1416 43.6498 43.7667 43.767V45.1496C43.6964 45.501 43.4387 45.7588 43.1106 45.7588ZM40.9079 44.634H42.5482V43.4155C42.5482 43.1578 42.7122 42.9234 42.97 42.8766C43.6261 42.7125 44.1416 42.4782 44.6103 42.197C44.8212 42.033 45.1258 42.0564 45.3133 42.2439L46.2037 43.0875L47.352 41.9392L46.4849 41.0722C46.2975 40.8848 46.2506 40.6036 46.4146 40.3692C46.7427 39.8771 46.977 39.3382 47.0942 38.7758C47.1645 38.518 47.3988 38.3306 47.6566 38.3306H48.8517V36.6668H47.6566C47.3988 36.6668 47.1645 36.4794 47.0942 36.2216C46.977 35.6592 46.7427 35.1437 46.4146 34.6282C46.2975 34.3938 46.3209 34.1126 46.4849 33.9017L47.352 33.0347L46.2037 31.8631L45.3133 32.7067C45.1258 32.8941 44.8212 32.941 44.6337 32.8004C44.1416 32.5192 43.6027 32.2849 43.0169 32.1208C42.7591 32.0505 42.5951 31.8397 42.5951 31.5819V30.3634H40.9313V31.5819C40.9313 31.8397 40.7673 32.0505 40.5095 32.1208C39.9237 32.2614 39.4082 32.4723 38.8927 32.8004C38.6583 32.941 38.3771 32.8941 38.2131 32.7067L37.3227 31.8397L36.151 32.9879L36.9946 33.8549C37.2055 34.0423 37.2289 34.3001 37.1118 34.5344C36.7837 35.0734 36.5494 35.6358 36.4556 36.1513C36.3853 36.4091 36.151 36.5965 35.8933 36.5965H34.6747V38.2603H35.8933C36.151 38.2603 36.3853 38.4477 36.4556 38.7055C36.5728 39.2679 36.8071 39.8068 37.1118 40.2989C37.2289 40.5333 37.2055 40.8145 36.9946 40.9785L36.151 41.8221L37.3227 42.9937L38.2131 42.1267C38.4006 41.9392 38.6818 41.8924 38.8927 42.033C39.4082 42.361 39.9237 42.5719 40.5095 42.7125C40.7673 42.7828 40.9313 42.9937 40.9313 43.2515V44.634H40.9079ZM25.5359 39.6662C25.2078 39.6662 24.9501 39.3851 24.9501 39.0804C24.9501 34.6985 26.028 33.2691 26.9653 32.0037C27.6917 31.0429 28.2307 30.2931 28.2307 28.3481C28.2307 24.8566 25.3719 21.9978 21.8804 21.9978C18.3654 21.9978 15.5066 24.8566 15.5066 28.3481C15.5066 30.2931 16.069 31.0429 16.772 32.0037C17.7093 33.2691 18.7872 34.6985 18.7872 39.0804C18.7872 39.3851 18.5295 39.6662 18.2014 39.6662C17.8733 39.6662 17.6156 39.3851 17.6156 39.0804C17.6156 35.0734 16.7017 33.8549 15.8347 32.6832C15.1317 31.6991 14.335 30.6914 14.335 28.3481C14.335 24.224 17.6859 20.8496 21.8335 20.8496C26.0046 20.8496 29.332 24.2005 29.332 28.3481C29.332 30.6914 28.6056 31.6991 27.8558 32.6832C26.9653 33.8549 26.0749 35.0734 26.0749 39.0804C26.1217 39.3851 25.864 39.6662 25.5359 39.6662Z" fill="black"/>
<path fill-rule="evenodd" clip-rule="evenodd" d="M17.4986 29.9884C17.1706 29.9884 16.9128 29.7306 16.9128 29.4025C16.9128 26.1219 19.5607 23.4506 22.8413 23.4506C23.1694 23.4506 23.4271 23.7083 23.4271 24.0364C23.4271 24.3645 23.1694 24.6222 22.8413 24.6222C20.1934 24.6222 18.0376 26.7546 18.0376 29.426C18.0376 29.7306 17.7798 29.9884 17.4986 29.9884ZM27.4342 21.2245C27.3404 21.2245 27.2233 21.1776 27.1295 21.1542C26.8718 20.9901 26.778 20.6621 26.9186 20.3809L27.8794 18.6703C28.0434 18.4125 28.3715 18.3188 28.6527 18.4594C28.9104 18.6234 29.0276 18.9515 28.887 19.2327L27.9028 20.9198C27.8091 21.1073 27.6216 21.2245 27.4342 21.2245ZM31.5115 25.3018C31.324 25.3018 31.1366 25.2081 31.0428 25.0206C30.8788 24.7628 30.9725 24.3879 31.2537 24.2239L32.9409 23.2631C33.1987 23.0991 33.5736 23.1928 33.7376 23.4975C33.8782 23.7552 33.7845 24.1067 33.5033 24.2707L31.8161 25.2315C31.7224 25.2784 31.6052 25.3018 31.5115 25.3018ZM16.327 21.2245C16.1395 21.2245 15.9286 21.1073 15.8349 20.9198L14.8741 19.2327C14.7101 18.9749 14.8038 18.6234 15.085 18.4594C15.3428 18.2953 15.7177 18.3891 15.8583 18.6703L16.8425 20.3809C17.0065 20.6386 16.9128 20.9901 16.6082 21.1542C16.5144 21.2245 16.4207 21.2245 16.327 21.2245ZM12.2731 25.3018C12.1793 25.3018 12.0622 25.2784 11.9684 25.2315L10.2813 24.2707C10.0235 24.1067 9.92978 23.7786 10.0469 23.4975C10.211 23.2163 10.539 23.1225 10.8437 23.2631L12.5308 24.2239C12.7886 24.3879 12.8823 24.716 12.7417 25.0206C12.648 25.1846 12.4605 25.3018 12.2731 25.3018ZM26.6843 41.7048C26.3563 41.7048 26.0985 41.4471 26.0985 41.119C26.0985 40.791 26.3563 40.5332 26.6843 40.5332C26.9186 40.5332 27.1061 40.3457 27.1061 40.088C27.1061 39.8068 26.9186 39.6662 26.6843 39.6662H17.0768C16.8191 39.6662 16.655 39.8536 16.655 40.088C16.655 40.3457 16.8425 40.5332 17.0768 40.5332C17.4049 40.5332 17.6626 40.791 17.6626 41.119C17.6626 41.4471 17.4049 41.7048 17.0768 41.7048C16.1864 41.7048 15.5068 40.9784 15.5068 40.1114C15.5068 39.2444 16.2332 38.5414 17.0768 38.5414H26.6843C27.5513 38.5414 28.2309 39.2678 28.2309 40.1114C28.2778 40.9784 27.5513 41.7048 26.6843 41.7048Z" fill="black"/>
<path fill-rule="evenodd" clip-rule="evenodd" d="M26.6843 43.7435H17.0768C16.1864 43.7435 15.5068 43.0405 15.5068 42.1501C15.5068 41.2831 16.2333 40.6035 17.0768 40.6035H26.6843C27.5514 40.6035 28.2309 41.3065 28.2309 42.1501C28.2778 42.9937 27.5514 43.7435 26.6843 43.7435ZM17.0768 41.7049C16.8191 41.7049 16.655 41.8923 16.655 42.1267C16.655 42.3844 16.8425 42.5719 17.0768 42.5719H26.6843C26.9187 42.5719 27.1061 42.3844 27.1061 42.1267C27.1061 41.8689 26.9187 41.7049 26.6843 41.7049H17.0768Z" fill="black"/>
<path fill-rule="evenodd" clip-rule="evenodd" d="M22.6301 45.7588H21.1538C19.7244 45.7588 18.5527 44.5871 18.5527 43.1577C18.5527 42.8296 18.8339 42.5719 19.1386 42.5719C19.4666 42.5719 19.7244 42.8296 19.7244 43.1577C19.7244 43.9779 20.3805 44.634 21.2007 44.634H22.6535C23.4736 44.634 24.1063 43.9779 24.1063 43.1577C24.1063 42.8296 24.3641 42.5719 24.6922 42.5719C25.0202 42.5719 25.278 42.8296 25.278 43.1577C25.2077 44.5871 24.0595 45.7588 22.6301 45.7588ZM21.8802 39.6662C21.5521 39.6662 21.2944 39.385 21.2944 39.0804V33.2924C21.2944 33.105 21.3881 32.8941 21.5756 32.8003L23.8486 31.5115C24.1063 31.3475 24.4813 31.4412 24.6453 31.699C24.7859 31.9568 24.6922 32.3083 24.4344 32.4723L22.466 33.6205V39.1038C22.466 39.385 22.2083 39.6662 21.8802 39.6662Z" fill="black"/>
<path fill-rule="evenodd" clip-rule="evenodd" d="M21.8808 33.8548C21.7871 33.8548 21.6699 33.8079 21.5762 33.7845L19.3501 32.4723C19.0923 32.3082 18.9751 31.9567 19.1392 31.699C19.3032 31.4412 19.6781 31.3475 19.9359 31.5115L22.162 32.8003C22.4198 32.9644 22.5135 33.3159 22.3729 33.5736C22.2558 33.7376 22.0683 33.8548 21.8808 33.8548ZM41.7051 26.3328C41.377 26.3328 41.1193 26.0751 41.1193 25.7705V17.1003C41.1193 16.1395 40.346 15.3662 39.4087 15.3662H24.1773C23.2165 15.3662 22.4198 16.1395 22.4198 17.1003V21.4822C22.4198 21.7869 22.162 22.0681 21.834 22.0681C21.5293 22.0681 21.2481 21.7869 21.2481 21.4822V17.1003C21.2481 15.5068 22.5604 14.2415 24.1538 14.2415H39.3852C40.9552 14.2415 42.244 15.5068 42.244 17.1003V25.7939C42.2909 26.0751 42.0331 26.3328 41.7051 26.3328Z" fill="black"/>
<path fill-rule="evenodd" clip-rule="evenodd" d="M41.7044 26.3327C41.5873 26.3327 41.4232 26.2859 41.3295 26.1921L38.541 23.3802C38.3067 23.1693 38.3067 22.7944 38.541 22.5835C38.7519 22.3491 39.1268 22.3491 39.3377 22.5835L41.7044 24.9502L44.0712 22.5835C44.3055 22.3491 44.657 22.3491 44.8913 22.5835C45.1256 22.7944 45.1256 23.1693 44.8913 23.3802L42.1028 26.1921C42.0091 26.2859 41.8685 26.3327 41.7044 26.3327Z" fill="black"/>
</g>
<defs>
<clipPath id="clip0_977_2031">
<rect width="40" height="40" fill="white" transform="translate(10 10)"/>
</clipPath>
</defs>
</svg>
